<svg xmlns="http://www.w3.org/2000/svg" width="512" height="512" viewBox="0 0 512 512" version="1.1">
	<path d="M 224.644 63.536 C 196.147 68.911, 179.843 84.307, 167.499 117.500 C 162.135 131.923, 159.501 136.640, 155.235 139.462 C 146.470 145.261, 106.235 161.270, 40 185.311 C 27.075 190.002, 15.281 194.146, 13.791 194.518 C 12.301 194.891, 10.604 195.773, 10.019 196.477 C 8.330 198.512, 7.397 229.568, 8.967 231.461 C 9.906 232.591, 12.198 233, 17.599 233 C 26.921 233, 27.407 233.654, 29.537 249.036 C 32.431 269.941, 39.238 302.529, 49.639 345.274 L 55.181 368.049 58.591 369.474 C 79.333 378.140, 122.194 392.353, 139.755 396.388 L 146.009 397.825 149.502 390.563 C 164.217 359.969, 148.526 328.653, 108.500 308.734 C 97.141 303.080, 63.826 290.254, 57.432 289.072 C 48.375 287.398, 43.273 280.833, 48.412 277.466 C 50.626 276.015, 52.023 275.956, 60.212 276.964 C 82.748 279.737, 97.233 284.979, 119.132 298.287 C 147.235 315.363, 162.102 331.092, 166.010 347.881 C 167.765 355.421, 166.795 368.984, 163.962 376.500 C 161.369 383.383, 156.563 391.249, 152.497 395.265 C 150.957 396.786, 149.883 398.216, 150.110 398.443 C 151.105 399.439, 169.696 402.048, 182.732 403.022 C 224.561 406.147, 255.959 395.081, 265.485 373.855 C 267.809 368.675, 268.155 366.742, 267.846 360.643 C 267.545 354.688, 267.021 352.892, 264.693 349.840 C 258.251 341.398, 248.209 340.769, 241.115 348.363 C 236.607 353.189, 239.974 364, 245.986 364 C 247.985 364, 249 367.608, 249 374.713 L 249 379.176 244.750 378.468 C 236.315 377.063, 229.504 371.813, 226.348 364.282 C 224.243 359.258, 224.621 348.415, 227.078 343.339 C 231.273 334.673, 241.331 329.012, 252.500 329.032 C 261.245 329.047, 266.317 331.215, 272.777 337.700 C 284.097 349.065, 285.809 364.800, 277.550 381.570 C 273.113 390.581, 267.679 396.730, 259.134 402.411 C 244.962 411.832, 227.852 416.600, 204.500 417.635 C 168.521 419.230, 127.587 410.803, 74.175 390.806 C 66.846 388.062, 60.624 386.043, 60.349 386.318 C 59.742 386.925, 64.785 406.210, 65.790 407.129 C 67.435 408.633, 96.682 419.210, 111 423.479 C 149.662 435.005, 191.048 440.010, 223.500 437.083 C 247.898 434.882, 274.099 428.416, 292.587 420.033 C 311.008 411.681, 328.769 395.572, 335.948 380.706 C 343.152 365.788, 345.357 351.979, 342.603 339.024 C 338.972 321.947, 331.303 313.093, 317.454 309.990 C 309.213 308.143, 301.971 312.327, 301.780 319.046 C 301.678 322.612, 304.734 326, 308.052 326 C 310.483 326, 310.637 326.378, 311.473 334.400 L 312.191 341.300 306.708 340.734 C 289.358 338.943, 280.632 323.512, 287.940 307.542 C 290.283 302.422, 293.755 298.814, 299.683 295.340 C 306.293 291.466, 318.698 290.847, 327.829 293.934 C 343.711 299.305, 354.092 310.239, 359.621 327.422 C 363.075 338.157, 363.964 355.060, 361.659 366.196 C 354.256 401.970, 325.803 430.409, 284 443.818 C 278.775 445.494, 273.825 447.085, 273 447.354 C 272.175 447.622, 285.912 447.878, 303.526 447.921 L 335.552 448 343.026 443.358 C 363.887 430.400, 381.475 413.762, 393.310 395.787 C 403.939 379.644, 408.829 369.116, 413.648 352 C 421.767 323.163, 420.849 288.528, 411.425 268.131 C 407.110 258.792, 404.168 254.900, 398.453 250.968 C 393.464 247.535, 384.114 244, 380.025 244 C 370.845 244, 361.587 250.277, 358.380 258.674 C 354.540 268.730, 361.174 280, 370.934 280 C 373.444 280, 374.002 280.408, 374.009 282.250 C 374.013 283.488, 374.309 286.930, 374.666 289.900 L 375.314 295.299 368.907 294.785 C 351.939 293.423, 341.449 282.781, 339.395 264.846 C 337.607 249.240, 350.126 231.337, 366.500 226.084 C 380.400 221.624, 390.448 222.545, 404.836 229.597 C 419.917 236.988, 428.627 247.250, 435.583 265.824 C 447.042 296.417, 446.158 337.244, 433.296 371.500 C 423.655 397.179, 409.867 418.172, 390.099 437.270 L 378.993 448 415.497 448 C 445.080 448, 452 447.750, 452 446.679 C 452 445.952, 453.807 431.665, 456.016 414.929 C 458.225 398.193, 463.194 360.425, 467.060 331 C 480.987 224.980, 480.887 225.659, 482.761 223.913 C 483.717 223.022, 488.881 220.539, 494.236 218.396 L 503.972 214.500 503.969 199.500 L 503.965 184.500 467.733 174.698 C 342.102 140.710, 333.929 138.383, 331.452 135.907 C 330.119 134.573, 326.196 126.732, 322.734 118.481 C 313.954 97.553, 309.951 90.786, 301.085 81.885 C 292.651 73.417, 284.176 68.506, 271.821 64.925 C 262.059 62.095, 236.304 61.337, 224.644 63.536 M 227.634 86.586 C 215.675 89.481, 204.889 96.922, 198.259 106.849 C 192.075 116.111, 189.058 126.817, 187.765 144.097 L 186.659 158.873 173.579 164.326 C 166.386 167.326, 151.275 173.414, 140 177.856 C 56.588 210.718, 59.482 209.501, 59.845 211.551 C 60.035 212.623, 60.380 213.695, 60.612 213.934 C 61.235 214.574, 101.497 202.051, 133 191.418 C 173.388 177.786, 192.563 170.282, 196.451 166.589 L 199.702 163.500 200.297 150 C 201.656 119.199, 211.049 104.333, 232.193 99.524 C 259.254 93.369, 278.795 105.899, 287.838 135.205 C 288.976 138.892, 290.859 146.992, 292.023 153.205 C 293.187 159.417, 294.736 165.425, 295.465 166.555 C 299.414 172.678, 328.413 182.362, 365.964 190.098 C 389.954 195.040, 437.961 203.428, 438.517 202.775 C 439.351 201.796, 439.987 198, 439.317 198 C 438.868 197.999, 426.350 195.118, 411.500 191.597 C 361.133 179.655, 323.113 168.719, 310.532 162.556 L 305.500 160.092 303.697 148.929 C 297.946 113.329, 283.361 92.757, 259.458 86.531 C 252.130 84.622, 235.630 84.651, 227.634 86.586 M 218.500 190.213 C 216.850 190.794, 209.875 193.615, 203 196.483 C 196.125 199.350, 186.764 202.934, 182.198 204.448 C 171.672 207.936, 169 211.270, 168.242 221.860 C 167.492 232.348, 170.618 240, 175.655 240 C 177.792 240, 178 239.570, 178 235.167 C 178 232.508, 178.285 230.048, 178.633 229.700 C 178.982 229.351, 181.542 232.314, 184.323 236.283 C 187.104 240.252, 192.572 246.762, 196.474 250.750 C 203.224 257.648, 203.433 258, 200.784 258 C 198.978 258, 198 258.526, 198 259.497 C 198 262.161, 204.761 268.612, 208.829 269.831 C 217.801 272.519, 221.381 270.642, 227.052 260.277 C 237.786 240.660, 245.975 224.012, 247.499 218.713 C 250.326 208.882, 248.063 202.724, 240.452 199.544 C 238.440 198.704, 236.094 196.578, 234.849 194.469 C 231.721 189.167, 225.831 187.634, 218.500 190.213 M 281.970 197.753 C 279.479 199.361, 273.635 204.912, 268.983 210.088 C 264.331 215.265, 257.266 222.761, 253.283 226.746 C 249.299 230.731, 245.752 235.140, 245.400 236.543 C 243.085 245.765, 252.549 263, 259.926 263 C 263.749 263, 264.274 261.060, 261.802 256.065 C 260.674 253.784, 259.982 251.685, 260.266 251.401 C 260.549 251.117, 263.193 252.421, 266.141 254.298 C 272.740 258.501, 279.422 261.568, 288.266 264.455 C 294.712 266.559, 294.914 266.718, 292.516 267.811 C 289.163 269.339, 289.345 270.630, 293.250 273.011 C 299.566 276.862, 309.850 275.151, 315.121 269.373 C 317.740 266.502, 317.743 266.477, 318.989 239.309 C 320.232 212.182, 320.230 212.106, 318.059 207.622 C 316.862 205.150, 314.108 201.524, 311.939 199.564 C 308.727 196.662, 307.205 195.999, 303.747 195.993 C 301.411 195.989, 296.575 195.726, 293 195.408 C 287.014 194.876, 286.142 195.062, 281.970 197.753 M 121.932 246.126 C 120.131 249.491, 122.208 253, 126 253 C 128.232 253, 129.331 252.368, 130.124 250.626 C 131.710 247.145, 129.753 244, 126 244 C 124.036 244, 122.695 244.701, 121.932 246.126 M 180.489 248.538 C 181.420 250.717, 182.392 253.006, 182.649 253.624 C 183.260 255.090, 189.401 258.391, 190.585 257.888 C 191.088 257.675, 188.642 254.592, 185.148 251.038 C 178.810 244.591, 178.800 244.585, 180.489 248.538 M 63.250 246.662 C 60.632 247.718, 62.184 251.040, 67.234 255.195 C 74.744 261.371, 81.380 268.489, 83.634 272.784 C 85.019 275.423, 86.351 276.590, 88.229 276.810 C 91.787 277.228, 94.498 273.239, 93.624 268.872 L 93.003 265.767 99.752 266.435 C 126.320 269.066, 148.201 276.147, 165.998 287.876 C 169.023 289.869, 174.769 294.603, 178.768 298.396 C 203.590 321.936, 206.789 354.610, 186.853 380.950 C 184.664 383.842, 183.107 386.440, 183.391 386.724 C 184.331 387.664, 192.187 380.720, 197.577 374.186 C 204.062 366.323, 209.303 356.540, 211.415 348.356 C 213.450 340.468, 213.457 325.553, 211.430 317.731 C 204.484 290.925, 178.733 267.532, 144.145 256.606 L 135.810 253.972 133.893 256.409 C 131.337 259.659, 126.949 260.542, 123.144 258.574 C 120.518 257.217, 118.280 253.780, 118.767 251.855 C 119.379 249.434, 68.235 244.651, 63.250 246.662 M 270.454 268.571 C 275.153 272.723, 278.024 273.608, 282.317 272.227 C 285.250 271.285, 285.303 271.194, 283 271.075 C 281.625 271.004, 277.350 269.626, 273.500 268.012 L 266.500 265.078 270.454 268.571 M 70.338 427.437 C 70.641 428.228, 71.398 430.816, 72.020 433.187 C 72.642 435.559, 73.824 439.863, 74.646 442.750 L 76.142 448 105.821 447.943 L 135.500 447.886 122 444.104 C 106.418 439.740, 89.948 434.149, 78.530 429.350 C 69.347 425.490, 69.614 425.552, 70.338 427.437" stroke="none" fill="black" fill-rule="evenodd"/>
</svg>